<svg width="22" height="22" viewBox="0 0 22 22" fill="none" xmlns="http://www.w3.org/2000/svg">
<g clip-path="url(#clip0_121:12)">
<path d="M22.0008 11.0677C22.0008 4.95449 17.0755 -0.00100708 11.0008 -0.00100708C4.9233 0.00036792 -0.00195312 4.95449 -0.00195312 11.0691C-0.00195312 16.5925 4.0213 21.1712 9.2793 22.0017V14.2674H6.48805V11.0691H9.28205V8.62849C9.28205 5.85512 10.9252 4.32337 13.4373 4.32337C14.6418 4.32337 15.8999 4.53924 15.8999 4.53924V7.26174H14.5125C13.1472 7.26174 12.7209 8.11562 12.7209 8.99149V11.0677H15.7707L15.2839 14.266H12.7195V22.0004C17.9775 21.1699 22.0008 16.5911 22.0008 11.0677Z" fill="#F8B408"/>
</g>
<defs>
<clipPath id="clip0_121:12">
<rect width="22" height="22" fill="white"/>
</clipPath>
</defs>
</svg>
