<svg width="24" height="24" viewBox="0 0 24 24" fill="none" xmlns="http://www.w3.org/2000/svg">
<path d="M22.9291 7.4934C22.9168 6.56967 22.7436 5.65512 22.4173 4.79067C22.1343 4.0615 21.702 3.39929 21.1481 2.84634C20.5943 2.29339 19.931 1.86186 19.2006 1.57933C18.3458 1.259 17.4428 1.08579 16.53 1.06708C15.3547 1.01464 14.9821 1 11.9988 1C9.01544 1 8.63305 1 7.46635 1.06708C6.55395 1.08593 5.65136 1.25914 4.79698 1.57933C4.06649 1.86167 3.40307 2.29312 2.84917 2.8461C2.29528 3.39907 1.8631 4.06139 1.5803 4.79067C1.25879 5.64336 1.08567 6.54465 1.06841 7.45559C1.01588 8.63012 1 9.00211 1 11.9805C1 14.9589 1 15.3394 1.06841 16.5054C1.08674 17.4177 1.259 18.3178 1.5803 19.1727C1.86358 19.9018 2.29607 20.5639 2.85016 21.1166C3.40424 21.6693 4.06771 22.1006 4.7982 22.3829C5.65024 22.7161 6.55299 22.9017 7.46757 22.9317C8.64405 22.9841 9.01666 23 12 23C14.9833 23 15.3657 23 16.5324 22.9317C17.4452 22.9138 18.3483 22.741 19.203 22.4207C19.9332 22.1378 20.5964 21.7062 21.1502 21.1533C21.704 20.6004 22.1364 19.9383 22.4197 19.2093C22.741 18.3556 22.9133 17.4555 22.9316 16.542C22.9841 15.3687 23 14.9967 23 12.0171C22.9976 9.0387 22.9976 8.66061 22.9291 7.4934ZM11.9915 17.6128C8.87128 17.6128 6.34363 15.0894 6.34363 11.9744C6.34363 8.85941 8.87128 6.33596 11.9915 6.33596C13.4893 6.33596 14.9259 6.93001 15.9851 7.98742C17.0442 9.04483 17.6393 10.479 17.6393 11.9744C17.6393 13.4698 17.0442 14.904 15.9851 15.9614C14.9259 17.0188 13.4893 17.6128 11.9915 17.6128ZM17.8641 7.44218C17.6911 7.44234 17.5197 7.40844 17.3599 7.34242C17.2 7.27641 17.0548 7.17957 16.9325 7.05745C16.8101 6.93533 16.7131 6.79032 16.647 6.63073C16.5809 6.47114 16.5469 6.3001 16.5471 6.1274C16.5471 5.95482 16.5811 5.78393 16.6473 5.62449C16.7134 5.46504 16.8104 5.32017 16.9326 5.19814C17.0549 5.07611 17.2 4.97931 17.3597 4.91326C17.5194 4.84722 17.6906 4.81323 17.8635 4.81323C18.0363 4.81323 18.2075 4.84722 18.3672 4.91326C18.5269 4.97931 18.672 5.07611 18.7943 5.19814C18.9165 5.32017 19.0135 5.46504 19.0796 5.62449C19.1458 5.78393 19.1798 5.95482 19.1798 6.1274C19.1798 6.85431 18.591 7.44218 17.8641 7.44218Z" fill="#F8B408"/>
<path d="M12 16C14.2091 16 16 14.2091 16 12C16 9.79086 14.2091 8 12 8C9.79086 8 8 9.79086 8 12C8 14.2091 9.79086 16 12 16Z" fill="#F8B408"/>
</svg>
