<svg width="22" height="22" viewBox="0 0 22 22" fill="none" xmlns="http://www.w3.org/2000/svg">
<rect width="22" height="22" rx="1" fill="#FC8019"/>
<path d="M9.20953 13.4686C8.61003 13.4686 8.01053 13.4576 7.41195 13.4723C7.16314 13.4953 6.91322 13.442 6.69543 13.3196C6.47764 13.1971 6.30231 13.0112 6.19278 12.7866C5.29585 11.2507 4.81379 9.50787 4.79395 7.72934C4.83214 6.25102 5.43851 4.84426 6.48703 3.80142C7.16815 3.07419 8.01556 2.52309 8.95653 2.19542C10.0281 1.80815 11.1871 1.73095 12.3005 1.97267C13.5547 2.23893 14.6968 2.88373 15.5727 3.81995C16.4486 4.75618 17.016 5.9387 17.1983 7.20776C17.2259 7.32272 17.2086 7.44387 17.1501 7.54657C17.0915 7.64926 16.996 7.72576 16.8829 7.76051C16.4243 7.95304 15.9372 8.06886 15.441 8.10334C14.4833 8.21943 13.516 8.23326 12.5554 8.14459C12.1704 8.09692 12.1007 8.02084 12.097 7.62301C12.0934 7.08034 12.0961 6.53767 12.0952 5.99409L12.0924 5.74109C12.0977 5.70118 12.094 5.6606 12.0817 5.62228C12.0693 5.58396 12.0487 5.54885 12.0211 5.51948C11.9936 5.49011 11.9599 5.46721 11.9225 5.45243C11.885 5.43765 11.8448 5.43136 11.8046 5.43401C11.5892 5.42667 11.4939 5.54859 11.4929 5.74567C11.4902 6.67334 11.4911 7.60009 11.492 8.52684C11.492 8.79084 11.6589 8.85501 11.8834 8.85501C12.7167 8.85409 13.5499 8.85134 14.3832 8.85684C14.8976 8.84429 15.4116 8.89416 15.914 9.00534C16.0843 9.02081 16.2486 9.07564 16.394 9.16551C16.5394 9.25538 16.662 9.37783 16.7519 9.52319C16.8419 9.66854 16.8968 9.83282 16.9124 10.0031C16.928 10.1733 16.9038 10.3448 16.8417 10.5041C16.5618 11.7477 16.1003 12.9433 15.4722 14.0525C14.5313 15.758 13.4336 17.3722 12.1933 18.8742C11.877 19.2683 11.5415 19.646 11.2216 20.0365C11.0768 20.2134 10.9677 20.2098 10.8274 20.0273C9.67742 18.5868 8.6278 17.0689 7.68603 15.4843C7.56961 15.2827 7.47886 15.0654 7.38078 14.8537C7.28636 14.6502 7.36245 14.5163 7.5577 14.4256C7.79107 14.3274 8.03863 14.267 8.29103 14.2468C9.0052 14.1429 9.73107 14.1491 10.4434 14.2652C10.8559 14.3403 10.9237 14.4375 10.9228 14.8509C10.9228 15.169 10.9182 15.4871 10.9228 15.8061C10.9255 16.0078 10.9833 16.2012 11.2253 16.2003C11.4654 16.1975 11.5223 16.0032 11.5241 15.8015C11.5278 15.1369 11.5223 14.4723 11.5269 13.8068C11.5287 13.5208 11.3481 13.4668 11.1189 13.4658C10.4828 13.4646 9.84631 13.4646 9.20953 13.4658V13.4686Z" fill="white"/>
</svg>
