<svg width="22" height="22" viewBox="0 0 22 22" fill="none" xmlns="http://www.w3.org/2000/svg">
<path d="M21.12 0H0.88C0.393989 0 0 0.393989 0 0.88V21.12C0 21.606 0.393989 22 0.88 22H21.12C21.606 22 22 21.606 22 21.12V0.88C22 0.393989 21.606 0 21.12 0Z" fill="#CB202D"/>
<path fill-rule="evenodd" clip-rule="evenodd" d="M4.35766 12.4334V11.9499H2.77558L4.35766 10.1619V9.75643H2.0708L2.07081 10.2401H3.59868L2.0166 12.028V12.4334H4.35766ZM6.09445 12.492C6.92272 12.492 7.53382 11.8619 7.53382 11.0999V11.0901C7.53382 10.3231 6.9276 9.70271 6.10454 9.70271C5.2766 9.70271 4.66529 10.3378 4.66529 11.0999V11.1096C4.66529 11.8717 5.27139 12.492 6.09445 12.492ZM6.10454 11.9792C5.61162 11.9792 5.25674 11.5786 5.25674 11.0999V11.0901C5.25674 10.6162 5.58687 10.2156 6.09445 10.2156C6.58737 10.2156 6.94225 10.6211 6.94225 11.0999V11.1096C6.94225 11.5835 6.61211 11.9792 6.10454 11.9792ZM8.05833 12.4334H8.64957V10.924C8.64957 10.5039 8.89604 10.2401 9.25092 10.2401C9.6058 10.2401 9.81286 10.4746 9.81286 10.8996V12.4334H10.409V10.9191C10.409 10.4794 10.6603 10.2401 11.0055 10.2401C11.3603 10.2401 11.5723 10.4746 11.5723 10.9093V12.4334H12.1639V10.7335C12.1639 10.0788 11.8038 9.70271 11.2125 9.70271C10.7935 9.70271 10.5125 9.8932 10.2957 10.1766C10.1528 9.8932 9.877 9.70271 9.48273 9.70271C9.06371 9.70271 8.82701 9.92742 8.64957 10.1717V9.75643H8.05833V12.4334ZM13.7527 12.0573C13.4522 12.0573 13.2106 11.9059 13.2106 11.6372V11.6275C13.2106 11.3441 13.4522 11.1682 13.8611 11.1682C14.1173 11.1682 14.3345 11.2171 14.4969 11.2757V11.4711C14.4969 11.818 14.1766 12.0573 13.7527 12.0573ZM13.5951 12.4871C14.0141 12.4871 14.3 12.3113 14.4823 12.0915V12.4334H15.0589V10.8409C15.0589 10.4892 14.97 10.2107 14.773 10.0202C14.5806 9.82972 14.2801 9.72224 13.8809 9.72224C13.4522 9.72224 13.1614 9.81018 12.8655 9.94207L13.0234 10.4013C13.2698 10.2987 13.4964 10.2352 13.8022 10.2352C14.2456 10.2352 14.4872 10.4453 14.4872 10.836V10.9044C14.2752 10.836 14.0535 10.7921 13.7478 10.7921C13.0875 10.7921 12.6291 11.0754 12.6291 11.6519V11.6616C12.6291 12.199 13.0875 12.4871 13.5951 12.4871ZM16.579 12.4774C16.8056 12.4774 16.9733 12.4285 17.126 12.3455V11.8619C17.0029 11.9206 16.8795 11.9548 16.7415 11.9548C16.5246 11.9548 16.3967 11.8522 16.3967 11.6079V10.2645H17.1357V9.75643H16.3967V9.01389H15.8051V9.75643H15.4551V10.2645H15.8051V11.7007C15.8051 12.282 16.1255 12.4774 16.579 12.4774ZM20.236 11.0999V11.0901C20.236 10.3231 19.6298 9.70271 18.8067 9.70271C17.9788 9.70271 17.3676 10.3378 17.3676 11.0999V11.1096C17.3676 11.8717 17.9739 12.492 18.7969 12.492C19.6249 12.492 20.236 11.8619 20.236 11.0999ZM18.8067 11.9792C18.3138 11.9792 17.9589 11.5786 17.9589 11.0999V11.0901C17.9589 10.6162 18.2894 10.2156 18.7969 10.2156C19.2899 10.2156 19.6444 10.6211 19.6444 11.0999V11.1096C19.6444 11.5835 19.3143 11.9792 18.8067 11.9792Z" fill="white"/>
</svg>
